<?xml version="1.0" ?><svg id="Layer_1" style="enable-background:new -239 241 32 32;" version="1.1" viewBox="-239 241 32 32" xml:space="preserve" xmlns="http://www.w3.org/2000/svg" xmlns:xlink="http://www.w3.org/1999/xlink"><style type="text/css">
	.st0{fill:#CA2029;}
	.st1{fill:#FFFFFF;}
</style><circle class="st0" cx="-223" cy="257" id="XMLID_1_" r="15.1"/><path class="st1" d="M-216.3,251.9c0,0-0.7-2.8-4-3.5c0,0-2.6-1.1-5.7,0.2c0,0-2.8,1.3-3.9,4.2c0,0-1,2.5,0.4,4.5  c0,0,1,1.3,1.9,1.1c0,0,0.4-0.8,0-1.9c0,0-1.1-1.6,0-3.6c0,0,0.8-2,3.2-2.7c0,0,2.6-1,4.3,0.7c0,0,1.2,1,1.6,2.6  c0,0,0.4,1.5-0.4,3.7c0,0-0.9,1.5-1.7,1.8c0,0-1.6,0.9-2.8-0.5l-0.4-0.6c0.2-0.8,0.4-1.4,0.4-1.4c1.2-1.2,0.9-3.2,0.9-3.2  c-0.3-1.4-2-0.9-2-0.9c-1.1,0.2-1.5,2.3-1.5,2.3c0,0.9,0.5,1.9,0.5,1.9c-0.4,0.6-1.1,4.2-1.1,4.2c-0.6,2.8-0.1,5.2-0.1,5.2  c0.4,0,0.9-0.8,0.9-0.8c1.3-1.3,1.5-4.6,1.5-4.6c0-0.2,0.1-0.5,0.2-0.8c0.5,0.6,2.1,2.1,4.1,1.4c0,0,3.2-0.7,4.1-4.4  C-216,256.8-215.1,254.3-216.3,251.9z" id="XMLID_15_"/></svg>