<svg xmlns="http://www.w3.org/2000/svg" version="1.1" xmlns:xlink="http://www.w3.org/1999/xlink" xmlns:svgjs="http://svgjs.dev/svgjs" viewBox="0 0 6.614232995226223 2.0141299182737296"><g transform="matrix(1,0,0,1,0.29332905187669356,0.38270558413686484)"><rect width="6.614232995226223" height="6.614232995226223" x="-0.2933290518766931" y="-2.6827571226131113" fill="#4e888f"></rect><g><path d=" M 0.21651171875 0.9252099609375 Q 0.1913359375 0.9252099609375 0.17937744140624998 0.93590966796875 Q 0.16741894531249998 0.946609375 0.16238378906249998 0.9629736328125 Q 0.1472783203125 0.959197265625 0.12776708984375 0.9617148437499999 Q 0.108255859375 0.964232421875 0.08874462890625 0.96675 Q 0.0692333984375 0.969267578125 0.050980957031249996 0.96989697265625 Q 0.032728515624999996 0.9705263671875 0.020140625 0.9629736328125 Q 0.013846679687499999 0.959197265625 0.0100703125 0.95227392578125 Q 0.006293945312499999 0.9453505859375 0.0012587890625 0.9390566406249999 Q -0.0037763671875 0.93150390625 -0.009440917968749999 0.9252099609375 Q -0.01510546875 0.918916015625 -0.016364257812499998 0.9126220703125 Q -0.018881835937499997 0.9050693359374999 -0.012587890624999999 0.89059326171875 Q -0.006293945312499999 0.8761171875 -0.0012587890625 0.8698232421875 Q 0.0037763671875 0.866046875 0.01069970703125 0.863529296875 Q 0.017623046875 0.8610117187499999 0.0239169921875 0.8559765625 Q 0.0415400390625 0.8421298828125 0.049722167968749995 0.82135986328125 Q 0.057904296875 0.80058984375 0.06419824218749999 0.788001953125 Q 0.073009765625 0.7817080078125 0.08496826171875 0.77478466796875 Q 0.0969267578125 0.767861328125 0.0944091796875 0.7565322265625 Q 0.083080078125 0.75023828125 0.067974609375 0.75086767578125 Q 0.052869140625 0.7514970703125 0.037763671874999995 0.75023828125 Q 0.012587890624999999 0.75023828125 -0.012587890624999999 0.7464619140625 Q -0.037763671874999995 0.742685546875 -0.057904296875 0.74016796875 Q -0.09063281249999999 0.7338740234375 -0.11517919921874999 0.70995703125 Q -0.13972558593749998 0.6860400390625 -0.13594921875 0.64953515625 Q -0.1271376953125 0.6457587890625001 -0.11643798828124999 0.6457587890625001 Q -0.10573828125 0.6457587890625001 -0.09377978515624999 0.647017578125 Q -0.0818212890625 0.6482763671875 -0.06986279296874999 0.64890576171875 Q -0.057904296875 0.64953515625 -0.047833984375 0.6457587890625001 Q -0.0365048828125 0.6533115234375 -0.02706396484375 0.6533115234375 Q -0.017623046875 0.6533115234375 -0.009440917968749999 0.64953515625 Q -0.0012587890625 0.6457587890625001 0.006293945312499999 0.64135302734375 Q 0.013846679687499999 0.6369472656249999 0.020140625 0.6356884765624999 Q 0.0264345703125 0.6344296875 0.0314697265625 0.6356884765624999 Q 0.0365048828125 0.6369472656249999 0.042798828125 0.6369472656249999 Q 0.052869140625 0.6369472656249999 0.062939453125 0.6338002929687501 Q 0.073009765625 0.6306533203125 0.08685644531249999 0.6281357421875 Q 0.10573828125 0.6256181640625 0.12587890625 0.6249887695312499 Q 0.14601953125 0.624359375 0.1598662109375 0.6180654296875 Q 0.168677734375 0.6142890624999999 0.1800068359375 0.60484814453125 Q 0.1913359375 0.5954072265625 0.19637109374999998 0.5878544921875 Q 0.19888867187499998 0.581560546875 0.19825927734374998 0.57589599609375 Q 0.1976298828125 0.5702314453125 0.2001474609375 0.5639375 Q 0.20644140625 0.5425380859375 0.22217626953125 0.526173828125 Q 0.23791113281249998 0.5098095703125001 0.2479814453125 0.4896689453125 Q 0.2517578125 0.47959863281250004 0.25364599609375 0.47456347656250003 Q 0.2555341796875 0.4695283203125 0.25679296874999996 0.465751953125 Q 0.2580517578125 0.4619755859375 0.25993994140625 0.45694042968750004 Q 0.26182812499999997 0.4519052734375 0.26812207031249996 0.44183496093749997 Q 0.27945117187499996 0.42421191406250003 0.29140966796875 0.40784765624999997 Q 0.3033681640625 0.3914833984375 0.319732421875 0.37637792968750006 Q 0.319732421875 0.3688251953125 0.32225 0.3631606445312501 Q 0.32476757812499996 0.35749609375 0.32728515625 0.3512021484375 Q 0.3612724609375 0.33735546875 0.382671875 0.314697265625 Q 0.40407128906249995 0.2920390625 0.42547070312499996 0.26686328125000003 Q 0.4242119140625 0.25427539062500004 0.43050585937499997 0.24861083984375 Q 0.43679980468749996 0.24294628906250004 0.43679980468749996 0.23035839843750006 Q 0.43679980468749996 0.224064453125 0.43239404296874995 0.21588232421874998 Q 0.42798828125 0.20770019531250006 0.42798828125 0.19888867187500003 Q 0.42798828125 0.18881835937500002 0.43617041015624997 0.17811865234375002 Q 0.4443525390625 0.1674189453125 0.450646484375 0.158607421875 Q 0.46071679687499995 0.1485371093750001 0.46638134765624994 0.13846679687500008 Q 0.47204589843749994 0.12839648437500006 0.47833984375 0.11958496093750004 Q 0.48841015624999995 0.10825585937500004 0.49910986328124995 0.09944433593750002 Q 0.5098095703125 0.09063281249999999 0.5198798828125 0.078044921875 Q 0.5249150390624999 0.07049218750000008 0.52806201171875 0.06105126953125006 Q 0.531208984375 0.051610351562500045 0.53876171875 0.046575195312500095 Q 0.5500908203125 0.03902246093750006 0.5702314453124999 0.03776367187500007 Q 0.5903720703124999 0.036504882812500083 0.6105126953125 0.035246093750000096 Q 0.6344296875 0.0339873046875 0.66275244140625 0.02958154296875004 Q 0.6910751953125 0.025175781250000084 0.71939794921875 0.020140625000000023 Q 0.7477207031249999 0.015105468750000073 0.77478466796875 0.010699707031250005 Q 0.8018486328125 0.006293945312500049 0.8245068359375 0.005035156250000061 Q 0.8471650390625 0.002517578125000086 0.86793505859375 0.0037763671875000737 Q 0.888705078125 0.005035156250000061 0.90129296875 0 Q 0.9189160156249999 0.015105468750000073 0.93716845703125 0.02958154296875004 Q 0.9554208984374999 0.04405761718750001 0.97178515625 0.06042187500000007 Q 0.9768203124999999 0.08559765625000004 0.9805966796875 0.10699707031250005 Q 0.9843730468749999 0.12839648437500006 0.98185546875 0.14979589843750007 Q 0.979337890625 0.1598662109375001 0.9736733398437499 0.168677734375 Q 0.9680087890625 0.17748925781250002 0.969267578125 0.18881835937500002 Q 0.969267578125 0.20770019531250006 0.9805966796875 0.22595263671875 Q 0.99192578125 0.24420507812500003 0.9969609374999999 0.26560449218750004 Q 0.9982197265624999 0.27567480468750005 0.99381396484375 0.28511572265625007 Q 0.989408203125 0.294556640625 0.9881494140624999 0.304626953125 Q 0.9868906249999999 0.314697265625 0.989408203125 0.32665576171875 Q 0.99192578125 0.3386142578125 0.994443359375 0.3512021484375 Q 0.994443359375 0.36630761718750005 0.9931845703125 0.3814130859375 Q 0.99192578125 0.39651855468749997 0.994443359375 0.41288281250000003 Q 0.9969609374999999 0.4292470703125 1.0007373046874999 0.44624072265625003 Q 1.0045136718749998 0.46323437500000003 1.0032548828124999 0.480857421875 Q 1.0007373046874999 0.49848046875 0.9963315429687499 0.5135859375 Q 0.99192578125 0.52869140625 0.99192578125 0.5450556640625 Q 0.9906669921875 0.5677138671874999 0.994443359375 0.5884838867187501 Q 0.9982197265624999 0.60925390625 0.99192578125 0.6306533203125 Q 1.0019960937499999 0.6432412109375001 1.00262548828125 0.6558291015625 Q 1.0032548828124999 0.6684169921875001 1.0007373046874999 0.6810048828124999 Q 0.9982197265624999 0.6935927734375 0.9957021484374999 0.70681005859375 Q 0.9931845703125 0.72002734375 0.9982197265624999 0.7338740234375 Q 1.0007373046874999 0.742685546875 1.0082900390625 0.74960888671875 Q 1.0158427734375 0.7565322265625 1.0183603515625 0.7666025390625 Q 1.02213671875 0.7791904296875 1.02276611328125 0.79744287109375 Q 1.0233955078124999 0.8156953124999999 1.0233955078124999 0.8320595703125 Q 1.0246542968749999 0.8723408203125 1.0164721679687498 0.903810546875 Q 1.0082900390625 0.9352802734375 1.00703125 0.97178515625 Q 1.00703125 0.9881494140625 1.00640185546875 1.0082900390625 Q 1.0057724609374998 1.0284306640625 0.9994785156249999 1.039759765625 Q 0.9931845703125 1.0473124999999999 0.979337890625 1.05549462890625 Q 0.9654912109374999 1.0636767578125 0.9554208984374999 1.064935546875 Q 0.9365390625 1.0661943359375 0.91199267578125 1.054865234375 Q 0.8874462890624999 1.0435361328125 0.8748583984374999 1.0309482421875 Q 0.8635292968749999 1.0183603515625 0.85408837890625 1.0032548828125 Q 0.8446474609375 0.9881494140625 0.83520654296875 0.97178515625 Q 0.825765625 0.9554208984375 0.8156953124999999 0.94094482421875 Q 0.8056249999999999 0.92646875 0.7930371093749999 0.9163984374999999 Q 0.7867431640625 0.9126220703125 0.7791904296875 0.908845703125 Q 0.7716376953124999 0.9050693359374999 0.767861328125 0.9000341796875 Q 0.7603085937499999 0.8874462890625 0.7596791992187499 0.8717114257812499 Q 0.7590498046874999 0.8559765625 0.7609379882812499 0.83898291015625 Q 0.7628261718749999 0.8219892578125 0.76471435546875 0.805625 Q 0.7666025390625 0.7892607421875 0.7628261718749999 0.7766728515625 Q 0.7590498046874999 0.7640849609375 0.752755859375 0.75716162109375 Q 0.7464619140625 0.75023828125 0.7370209960937499 0.7470913085937501 Q 0.7275800781249999 0.7439443359375 0.7156215820312499 0.74331494140625 Q 0.7036630859374999 0.742685546875 0.687298828125 0.7414267578125 Q 0.6281357421875 0.737650390625 0.5651962890625 0.7338740234375 Q 0.5022568359374999 0.73009765625 0.43679980468749996 0.7313564453125 Q 0.422953125 0.7313564453125 0.4166591796875 0.732615234375 Q 0.410365234375 0.7338740234375 0.405330078125 0.73450341796875 Q 0.400294921875 0.7351328125000001 0.395259765625 0.7363916015625 Q 0.390224609375 0.737650390625 0.3788955078125 0.737650390625 Q 0.3537197265625 0.7389091796875 0.3335791015625 0.74079736328125 Q 0.31343847656249996 0.742685546875 0.2983330078125 0.7540146484375 Q 0.28952148437499997 0.76030859375 0.27945117187499996 0.7791904296875 Q 0.269380859375 0.798072265625 0.264345703125 0.808142578125 Q 0.2580517578125 0.823248046875 0.25364599609375 0.8396123046875 Q 0.24924023437499998 0.8559765625 0.24483447265625 0.8717114257812499 Q 0.24042871093749998 0.8874462890625 0.234134765625 0.90129296875 Q 0.2278408203125 0.9151396484375 0.21651171875 0.9252099609375 M 0.5362441406249999 0.5928896484375 Q 0.5790429687499999 0.5916308593749999 0.61869482421875 0.59100146484375 Q 0.6583466796874999 0.5903720703124999 0.6935927734374999 0.5878544921875 Q 0.6986279296875 0.5853369140625 0.7030336914062499 0.584078125 Q 0.707439453125 0.5828193359375 0.7175097656249999 0.5853369140625 Q 0.7175097656249999 0.57904296875 0.7238037109375 0.57841357421875 Q 0.73009765625 0.5777841796875001 0.7338740234375 0.5752666015625001 Q 0.7389091796874999 0.566455078125 0.7389091796874999 0.56079052734375 Q 0.7389091796874999 0.5551259765625001 0.7370209960937499 0.55072021484375 Q 0.7351328125 0.5463144531249999 0.73198583984375 0.54064990234375 Q 0.7288388671874999 0.5349853515625 0.7288388671874999 0.5249150390625 Q 0.7288388671874999 0.5148447265625 0.73198583984375 0.50414501953125 Q 0.7351328125 0.4934453125 0.7363916015624999 0.4821162109375 Q 0.7376503906249999 0.4733046875 0.73450341796875 0.46323437500000003 Q 0.7313564453125 0.45316406249999996 0.732615234375 0.44309375000000006 Q 0.7338740234375 0.43428222656250004 0.7401679687499999 0.42735888671875 Q 0.7464619140625 0.42043554687500007 0.7464619140625 0.41162402343750004 Q 0.7464619140625 0.4065888671875 0.74457373046875 0.40029492187500004 Q 0.742685546875 0.3940009765625 0.7414267578125 0.38770703125000006 Q 0.7401679687499999 0.37889550781250003 0.74079736328125 0.370083984375 Q 0.7414267578125 0.3612724609375 0.7389091796874999 0.35497851562500005 Q 0.7363916015624999 0.34490820312500003 0.7263212890624999 0.3360966796875 Q 0.7162509765624999 0.32728515625 0.7137333984374999 0.31721484375 Q 0.70995703125 0.304626953125 0.71310400390625 0.28889208984375003 Q 0.7162509765624999 0.2731572265625001 0.7162509765624999 0.2580517578125 Q 0.7149921874999999 0.23665234375 0.712474609375 0.21902929687500006 Q 0.70995703125 0.20140625 0.69988671875 0.18378320312500007 Q 0.6860400390625 0.17623046875000004 0.67911669921875 0.17811865234375002 Q 0.6721933593749999 0.1800068359375 0.66778759765625 0.18693017578125004 Q 0.6633818359375 0.19385351562500008 0.6602348632812499 0.2026650390625 Q 0.657087890625 0.21147656250000002 0.6495351562499999 0.21777050781250007 Q 0.6155478515624999 0.2479814453125 0.596666015625 0.27882177734375 Q 0.5777841796875 0.30966210937500005 0.5500908203125 0.3461669921875 Q 0.53876171875 0.360013671875 0.52680322265625 0.37386035156249997 Q 0.5148447265625 0.38770703125000006 0.50540380859375 0.4040712890625 Q 0.495962890625 0.42043554687500007 0.490927734375 0.43805859375 Q 0.485892578125 0.45568164062500005 0.48841015624999995 0.4770810546875 Q 0.48211621093749996 0.4871513671875 0.47771044921874994 0.49155712890625003 Q 0.4733046875 0.49596289062500004 0.46826953125 0.4997392578125 Q 0.463234375 0.503515625 0.45756982421875 0.5085507812500001 Q 0.4519052734375 0.5135859375 0.4443525390625 0.5223974609375 Q 0.43050585937499997 0.5400205078125 0.41414160156249996 0.55827294921875 Q 0.39777734374999996 0.5765253906250001 0.39274218749999995 0.5979248046875001 Q 0.41540039062499995 0.60421875 0.43176464843749995 0.60421875 Q 0.44812890624999996 0.60421875 0.46386376953124997 0.6023305664062499 Q 0.4795986328125 0.6004423828125001 0.49659228515625 0.59729541015625 Q 0.5135859374999999 0.5941484375 0.5362441406249999 0.5928896484375 M 1.14298046875 0.88115234375 Q 1.1517919921875 0.8610117187499999 1.1580859374999999 0.84275927734375 Q 1.1643798828125 0.8245068359375 1.1744501953125 0.8018486328125 Q 1.1794853515625 0.7892607421875 1.1820029296874999 0.7754140625 Q 1.1845205078125 0.7615673828125 1.190814453125 0.7477207031249999 Q 1.1971083984375 0.7363916015625 1.20654931640625 0.7250624999999999 Q 1.215990234375 0.7137333984375 1.221025390625 0.69988671875 Q 1.2285781249999999 0.6784873046875 1.2222841796875 0.65142333984375 Q 1.215990234375 0.624359375 1.22354296875 0.596666015625 Q 1.2298369140625 0.5702314453125 1.2380190429687499 0.5444262695312501 Q 1.246201171875 0.51862109375 1.2487187499999999 0.49848046875 Q 1.251236328125 0.48463378906250004 1.251236328125 0.47015771484375 Q 1.251236328125 0.45568164062500005 1.25375390625 0.440576171875 Q 1.256271484375 0.42421191406250003 1.26382421875 0.4084770507812501 Q 1.2713769531249999 0.3927421875 1.2726357421875 0.37889550781250003 Q 1.2751533203125 0.349943359375 1.2594184570312499 0.32665576171875 Q 1.24368359375 0.3033681640625 1.2273193359374999 0.28700390625000005 Q 1.2285781249999999 0.279451171875 1.23550146484375 0.27504541015625006 Q 1.2424248046875 0.2706396484375 1.246201171875 0.2718984375 Q 1.261306640625 0.27441601562500006 1.2801884765625 0.28196875 Q 1.2990703125 0.289521484375 1.3166933593749999 0.2920390625 Q 1.331798828125 0.294556640625 1.3500512695312499 0.2920390625 Q 1.3683037109375 0.289521484375 1.3884443359374998 0.2920390625 Q 1.4098437499999998 0.294556640625 1.4400546875 0.29707421875000006 Q 1.470265625 0.29959179687500004 1.4992177734375 0.29959179687500004 Q 1.5319462890625 0.3008505859375 1.5621572265625 0.29833300781250005 Q 1.5923681640625 0.2958154296875001 1.6213203125 0.29959179687500004 Q 1.6427197265625 0.302109375 1.6603427734374998 0.31092089843750004 Q 1.6779658203125 0.31973242187500006 1.699365234375 0.31721484375 Q 1.71698828125 0.33735546875 1.74027587890625 0.34805517578125 Q 1.7635634765625 0.3587548828125 1.7824453125 0.37511914062500007 Q 1.8088798828125 0.39651855468749997 1.82776171875 0.42610009765625 Q 1.8466435546875 0.45568164062500005 1.873078125 0.4770810546875 Q 1.873078125 0.4871513671875 1.8781132812499999 0.49596289062500004 Q 1.8831484375 0.5047744140625 1.8844072265624998 0.516103515625 Q 1.8844072265624998 0.5223974609375 1.8818896484374998 0.53057958984375 Q 1.8793720703124999 0.53876171875 1.8793720703124999 0.5463144531249999 Q 1.880630859375 0.5576435546875 1.8869248046874998 0.5645668945312501 Q 1.89321875 0.571490234375 1.8919599609375 0.5853369140625 Q 1.890701171875 0.62939453125 1.8693017578125 0.672193359375 Q 1.84790234375 0.7149921875 1.8265029296875 0.7477207031249999 Q 1.8126562499999999 0.7489794921875 1.80699169921875 0.7590498046875 Q 1.8013271484375 0.7691201171875 1.792515625 0.7817080078125 Q 1.779927734375 0.7993310546875 1.7629340820312498 0.81128955078125 Q 1.7459404296874999 0.823248046875 1.73209375 0.84087109375 Q 1.704400390625 0.85094140625 1.68111279296875 0.8673056640625 Q 1.6578251953124998 0.8836699218749999 1.628873046875 0.8975166015625 Q 1.618802734375 0.9025517578125 1.60810302734375 0.90695751953125 Q 1.5974033203125 0.91136328125 1.5873330078124999 0.9163984374999999 Q 1.5747451171875 0.9201748046875 1.5634160156249999 0.9252099609375 Q 1.5520869140625 0.9302451171875 1.5420166015624999 0.9327626953125 Q 1.5344638671875 0.9352802734375 1.52628173828125 0.934021484375 Q 1.5180996093749999 0.9327626953125 1.510546875 0.9352802734375 Q 1.4941826171875 0.9390566406249999 1.4790771484374998 0.94849755859375 Q 1.4639716796875 0.9579384765625 1.4488662109375 0.9604560546875 Q 1.4312431640624999 0.9629736328125 1.4136201171875 0.9579384765625 Q 1.3959970703125 0.9529033203125 1.3796328125 0.949126953125 Q 1.3582333984375 0.95164453125 1.336833984375 0.95101513671875 Q 1.3154345703124999 0.9503857421874999 1.2927763671874999 0.949126953125 Q 1.2701181640624999 0.9478681640625 1.2449423828125 0.949126953125 Q 1.2197666015625 0.9503857421874999 1.190814453125 0.9554208984375 Q 1.1832617187499999 0.9566796875 1.17507958984375 0.9604560546875 Q 1.1668974609375 0.964232421875 1.1593447265624999 0.9654912109375 Q 1.145498046875 0.9680087890625 1.12850439453125 0.9680087890625 Q 1.1115107421875 0.9680087890625 1.0964052734375 0.9680087890625 Q 1.090111328125 0.9680087890625 1.0812998046875 0.96737939453125 Q 1.07248828125 0.96675 1.06430615234375 0.9654912109375 Q 1.0561240234375 0.964232421875 1.049830078125 0.9610854492187499 Q 1.0435361328125 0.9579384765625 1.04227734375 0.9529033203125 Q 1.0410185546875 0.9453505859375 1.04668310546875 0.9396860351562499 Q 1.05234765625 0.934021484375 1.06052978515625 0.92961572265625 Q 1.0687119140624999 0.9252099609375 1.0775234375 0.92206298828125 Q 1.0863349609375 0.918916015625 1.0913701171874999 0.9163984374999999 Q 1.1064755859375 0.9075869140625 1.11717529296875 0.89688720703125 Q 1.127875 0.8861875 1.14298046875 0.88115234375 M 1.477818359375 0.3940009765625 Q 1.467748046875 0.4040712890625 1.46334228515625 0.41791796875 Q 1.4589365234375 0.43176464843750006 1.45578955078125 0.44749951171875 Q 1.4526425781249999 0.46323437500000003 1.4501249999999999 0.47959863281250004 Q 1.447607421875 0.49596289062500004 1.442572265625 0.5110683593750001 Q 1.437537109375 0.521138671875 1.432501953125 0.53057958984375 Q 1.4274667968749999 0.5400205078125 1.42494921875 0.5500908203125 Q 1.4186552734375 0.5740078125 1.417396484375 0.596666015625 Q 1.4161376953125 0.61932421875 1.4098437499999998 0.6445000000000001 Q 1.4073261718749999 0.6583466796874999 1.4004028320312498 0.67156396484375 Q 1.3934794921875 0.68478125 1.3909619140625 0.6986279296875 Q 1.3884443359374998 0.7124746093750001 1.3909619140625 0.7250624999999999 Q 1.3934794921875 0.737650390625 1.3909619140625 0.7514970703125 Q 1.3884443359374998 0.7615673828125 1.38403857421875 0.7703789062499999 Q 1.3796328125 0.7791904296875 1.377115234375 0.7892607421875 Q 1.3708212890625 0.823248046875 1.389703125 0.83898291015625 Q 1.4085849609375 0.8547177734375 1.43501953125 0.8610117187499999 Q 1.4803359375 0.8710820312499999 1.51872900390625 0.85534716796875 Q 1.5571220703125 0.8396123046875 1.5797802734375 0.8194716796875 Q 1.59614453125 0.80058984375 1.613767578125 0.77856103515625 Q 1.6313906249999999 0.7565322265625 1.6414609375 0.73009765625 Q 1.6452373046875 0.72002734375 1.649013671875 0.70303369140625 Q 1.6527900390624999 0.6860400390625 1.6578251953124998 0.66967578125 Q 1.6616015625 0.6558291015625 1.6672661132812499 0.64387060546875 Q 1.6729306640625 0.631912109375 1.6767070312499999 0.61932421875 Q 1.6905537109375 0.586595703125 1.68740673828125 0.54946142578125 Q 1.6842597656249998 0.5123271484375 1.674189453125 0.49092773437500004 Q 1.6704130859375 0.483375 1.66223095703125 0.47456347656250003 Q 1.654048828125 0.465751953125 1.64649609375 0.45694042968750004 Q 1.6376845703125 0.4468701171875 1.63076123046875 0.4367998046875 Q 1.623837890625 0.4267294921875 1.618802734375 0.42169433593750005 Q 1.6011796875 0.405330078125 1.5766333007812499 0.39840673828125006 Q 1.5520869140625 0.3914833984375 1.5319462890625 0.37511914062500007 Q 1.510546875 0.37637792968750006 1.5004765624999998 0.382671875 Q 1.49040625 0.38896582031250004 1.477818359375 0.3940009765625 M 1.9045478515624998 0.8924814453125 Q 1.9070654296874998 0.863529296875 1.92405908203125 0.84024169921875 Q 1.941052734375 0.8169541015625 1.9498642578124998 0.7917783203125 Q 1.9548994140625 0.7754140625 1.9567875976562499 0.75716162109375 Q 1.95867578125 0.7389091796875 1.9593051757812499 0.72065673828125 Q 1.9599345703125 0.702404296875 1.9624521484375 0.68415185546875 Q 1.9649697265625 0.6658994140625001 1.9712636718749998 0.6482763671875 Q 1.9649697265625 0.6369472656249999 1.966228515625 0.6231005859375001 Q 1.9674873046874999 0.60925390625 1.9674873046874999 0.5941484375 Q 1.9737812499999998 0.5853369140625 1.9775576171874998 0.5740078125 Q 1.981333984375 0.5626787109375 1.9951806640624998 0.55890234375 Q 2.0077685546875 0.5312089843750001 2.0077685546875 0.50162744140625 Q 2.0077685546875 0.4720458984375 2.0140625 0.440576171875 Q 2.0153212890625 0.43428222656250004 2.01909765625 0.4292470703125 Q 2.0228740234375 0.42421191406250003 2.0253916015624998 0.41791796875 Q 2.034203125 0.3914833984375 2.034203125 0.36190185546875 Q 2.034203125 0.33232031250000005 2.0442734375 0.3058857421875 Q 2.0518261718749997 0.3033681640625 2.0631552734375 0.29770361328125006 Q 2.074484375 0.2920390625 2.08644287109375 0.28637451171875006 Q 2.0984013671875 0.2807099609375 2.10973046875 0.27693359375000004 Q 2.1210595703124997 0.2731572265625001 2.12987109375 0.27441601562500006 Q 2.1361650390625 0.27693359375000004 2.1424589843749997 0.28133935546875 Q 2.1487529296875 0.28574511718750006 2.157564453125 0.2920390625 Q 2.1638583984374997 0.2958154296875001 2.16952294921875 0.3008505859375 Q 2.1751875 0.3058857421875 2.1814814453125 0.30966210937500005 Q 2.1865166015625 0.3121796875 2.1946987304687497 0.31406787109375 Q 2.202880859375 0.3159560546875 2.2053984375 0.3184736328125001 Q 2.2066572265624997 0.31973242187500006 2.21358056640625 0.32728515625 Q 2.22050390625 0.334837890625 2.22742724609375 0.34364941406250005 Q 2.2343505859375 0.35246093750000007 2.24064453125 0.36064306640625 Q 2.2469384765625 0.3688251953125 2.248197265625 0.3713427734375 Q 2.2494560546874998 0.37889550781250003 2.2469384765625 0.38833642578125005 Q 2.2444208984375 0.39777734375000007 2.2400151367187497 0.40721826171875 Q 2.235609375 0.4166591796875 2.23120361328125 0.42610009765625 Q 2.2267978515625 0.435541015625 2.2242802734375 0.44309375000000006 Q 2.22050390625 0.45694042968750004 2.2167275390625 0.47015771484375 Q 2.212951171875 0.483375 2.2066572265624997 0.49722167968750003 Q 2.20036328125 0.5135859375 2.192810546875 0.5349853515625 Q 2.1852578124999997 0.556384765625 2.1827402343749998 0.5803017578125 Q 2.18022265625 0.5979248046875001 2.16952294921875 0.606736328125 Q 2.1588232421874998 0.6155478515625 2.155046875 0.631912109375 Q 2.152529296875 0.6432412109375001 2.152529296875 0.6558291015625 Q 2.152529296875 0.6684169921875001 2.15315869140625 0.68037548828125 Q 2.1537880859375 0.692333984375 2.15315869140625 0.7036630859374999 Q 2.152529296875 0.7149921875 2.1474941406249997 0.7250624999999999 Q 2.1437177734375 0.7313564453125 2.1361650390625 0.73450341796875 Q 2.1286123046875 0.737650390625 2.1235771484374997 0.7439443359375 Q 2.1160244140624997 0.7565322265625 2.11035986328125 0.7754140625 Q 2.1046953125 0.7942958984375 2.1009189453125 0.81506591796875 Q 2.0971425781249997 0.8358359375 2.09777197265625 0.85660595703125 Q 2.0984013671875 0.8773759765625 2.1046953125 0.8937402343749999 Q 2.0984013671875 0.913880859375 2.0826665039062497 0.928986328125 Q 2.066931640625 0.944091796875 2.0455322265625 0.95227392578125 Q 2.0241328125 0.9604560546875 1.99958642578125 0.9610854492187499 Q 1.9750400390624998 0.9617148437499999 1.9498642578124998 0.9529033203125 Q 1.9397939453125 0.9377978515625 1.9259472656249998 0.92458056640625 Q 1.9121005859375 0.91136328125 1.9045478515624998 0.8924814453125 M 2.9556367187499997 0.29833300781250005 Q 2.9531191406249997 0.3184736328125001 2.9411606445312497 0.3235087890625 Q 2.9292021484374997 0.3285439453125 2.9166142578125 0.334837890625 Q 2.9078027343749997 0.34113183593750007 2.9040263671874995 0.3512021484375 Q 2.9002499999999998 0.3612724609375 2.8939560546874996 0.36630761718750005 Q 2.8876621093749995 0.3726015625 2.8757036132812495 0.37574853515625006 Q 2.8637451171874995 0.37889550781250003 2.8561923828124995 0.3814130859375 Q 2.8347929687499995 0.38770703125000006 2.81150537109375 0.38770703125000006 Q 2.7882177734374998 0.38770703125000006 2.7705947265625 0.39022460937500003 Q 2.7605244140624996 0.3927421875 2.7504541015624997 0.40155371093750003 Q 2.7403837890625 0.41036523437500005 2.7290546874999997 0.415400390625 Q 2.7177255859374996 0.41917675781249997 2.711431640625 0.42169433593750005 Q 2.7051376953124997 0.42421191406250003 2.7007319335937496 0.42798828125 Q 2.6963261718749996 0.43176464843750006 2.6925498046875 0.43742919921875 Q 2.6887734374999996 0.44309375000000006 2.6824794921874995 0.45316406249999996 Q 2.6761855468749998 0.4644931640625 2.6761855468749998 0.48589257812500003 Q 2.6761855468749998 0.5072919921875001 2.6724091796874996 0.521138671875 Q 2.6686328125 0.5324677734375001 2.6642270507812498 0.5475732421875 Q 2.6598212890624997 0.5626787109375 2.6547861328124998 0.5803017578125 Q 2.6522685546875 0.5903720703124999 2.6522685546875 0.6023305664062499 Q 2.6522685546875 0.6142890624999999 2.6497509765625 0.624359375 Q 2.6459746093749996 0.6369472656249999 2.63779248046875 0.6432412109375001 Q 2.6296103515624996 0.64953515625 2.625833984375 0.6658994140625001 Q 2.62331640625 0.6734521484375 2.6239458007812497 0.68163427734375 Q 2.6245751953124996 0.6898164062500001 2.62331640625 0.697369140625 Q 2.61828125 0.727580078125 2.61135791015625 0.762826171875 Q 2.6044345703125 0.798072265625 2.5981406249999996 0.8320595703125 Q 2.5918466796874995 0.8610117187499999 2.5849233398437494 0.8874462890625 Q 2.578 0.913880859375 2.5679296874999995 0.9365390625 Q 2.5578593749999996 0.9352802734375 2.5477890624999997 0.94220361328125 Q 2.53771875 0.949126953125 2.5276484375 0.95164453125 Q 2.5188369140624998 0.954162109375 2.5106547851562495 0.954162109375 Q 2.5024726562499997 0.954162109375 2.494919921875 0.9604560546875 Q 2.4861083984374996 0.969267578125 2.4722617187499996 0.9837436523437499 Q 2.4584150390624995 0.9982197265625 2.4483447265624996 1.0007373046874999 Q 2.439533203125 1.0032548828125 2.43260986328125 1.0007373046874999 Q 2.4256865234375 0.9982197265625 2.4193925781249996 0.9969609375 Q 2.4093222656249997 0.9969609375 2.3998813476562497 0.99759033203125 Q 2.3904404296874997 0.9982197265625 2.3778525390625 0.9969609375 Q 2.3728173828125 0.9843730468749999 2.3740761718749996 0.96989697265625 Q 2.3753349609375 0.9554208984375 2.3797407226562495 0.94157421875 Q 2.3841464843749995 0.9277275390624999 2.38981103515625 0.91451025390625 Q 2.3954755859374997 0.90129296875 2.3979931640624996 0.888705078125 Q 2.4005107421874996 0.8798935546875 2.40114013671875 0.8698232421875 Q 2.40176953125 0.8597529296875 2.4055458984374996 0.8496826171875 Q 2.4093222656249997 0.8383535156249999 2.4175043945312495 0.82891259765625 Q 2.4256865234375 0.8194716796875 2.4294628906249995 0.8068837890625 Q 2.4344980468749995 0.7930371093749999 2.44205078125 0.7741552734375 Q 2.449603515625 0.7552734375 2.4508623046874995 0.742685546875 Q 2.4533798828124995 0.727580078125 2.4502329101562497 0.7137333984375 Q 2.4470859375 0.69988671875 2.4521210937499998 0.6835224609375 Q 2.4546386718749997 0.6759697265625 2.45904443359375 0.6703051757812499 Q 2.4634501953125 0.664640625 2.4659677734375 0.6545703125 Q 2.4697441406249996 0.6407236328125 2.4710029296875 0.6249887695312499 Q 2.4722617187499996 0.60925390625 2.4747792968749995 0.5941484375 Q 2.4772968749999995 0.5803017578125 2.479814453125 0.5670844726562501 Q 2.48233203125 0.5538671875000001 2.4861083984374996 0.5400205078125 Q 2.489884765625 0.5236562499999999 2.49429052734375 0.50918017578125 Q 2.4986962890624995 0.4947041015625 2.50184326171875 0.480857421875 Q 2.5049902343749997 0.4670107421875 2.5049902343749997 0.45379345703125007 Q 2.5049902343749997 0.440576171875 2.4974374999999998 0.425470703125 Q 2.489884765625 0.41162402343750004 2.4772968749999995 0.405330078125 Q 2.4647089843749996 0.39903613281250006 2.449603515625 0.39777734375000007 Q 2.4344980468749995 0.39651855468749997 2.4168749999999997 0.39777734375000007 Q 2.399251953125 0.39903613281250006 2.3828876953124998 0.39903613281250006 Q 2.3765937499999996 0.395259765625 2.3715585937499997 0.38518945312499997 Q 2.3665234374999997 0.37511914062500007 2.3577119140624996 0.3713427734375 Q 2.3426064453124997 0.36630761718750005 2.3243540039062496 0.36630761718750005 Q 2.3061015625 0.36630761718750005 2.2972900390624997 0.35246093750000007 Q 2.2897373046875 0.33357910156250004 2.29666064453125 0.3159560546875 Q 2.303583984375 0.29833300781250005 2.313654296875 0.2907802734375 Q 2.3602294921874996 0.2832275390625 2.4105810546874995 0.29140966796875 Q 2.4609326171875 0.29959179687500004 2.5112841796875 0.29833300781250005 Q 2.5314248046874996 0.29707421875000006 2.5515654296875 0.2907802734375 Q 2.5717060546874997 0.2844863281250001 2.5931054687499997 0.2907802734375 Q 2.5993994140625 0.2932978515625 2.6151342773437496 0.29896240234375004 Q 2.6308691406249998 0.304626953125 2.6371630859375 0.3071445312500001 Q 2.6434570312499996 0.30840332031250006 2.6497509765625 0.3071445312500001 Q 2.6560449218749995 0.3058857421875 2.6623388671874997 0.3071445312500001 Q 2.6724091796874996 0.3071445312500001 2.6818500976562496 0.31029150390625004 Q 2.6912910156249996 0.3134384765625 2.7013613281249995 0.3134384765625 Q 2.71394921875 0.3134384765625 2.7196137695312497 0.31280908203125 Q 2.7252783203124995 0.3121796875 2.7296840820312496 0.31092089843750004 Q 2.7340898437499996 0.30966210937500005 2.7391249999999996 0.30777392578125007 Q 2.7441601562499995 0.3058857421875 2.7554892578124996 0.304626953125 Q 2.7655595703124995 0.3033681640625 2.7756298828125 0.3058857421875 Q 2.7857001953125 0.30840332031250006 2.7957705078124997 0.30840332031250006 Q 2.8234638671875 0.30966210937500005 2.84926904296875 0.30147998046875 Q 2.8750742187499996 0.2932978515625 2.9002499999999998 0.2907802734375 Q 2.9140966796875 0.289521484375 2.92857275390625 0.29015087890625 Q 2.943048828125 0.2907802734375 2.9556367187499997 0.29833300781250005 M 3.109208984375 0.3071445312500001 Q 3.1104677734374997 0.3134384765625 3.10983837890625 0.33169091796875005 Q 3.109208984375 0.349943359375 3.1079501953124997 0.37197216796875 Q 3.1066914062499995 0.3940009765625 3.10732080078125 0.415400390625 Q 3.1079501953124997 0.4367998046875 3.1129853515624997 0.44812890625 Q 3.1155029296874996 0.45442285156250006 3.1205380859374996 0.45819921875 Q 3.1255732421874995 0.4619755859375 3.1280908203125 0.4670107421875 Q 3.1356435546875 0.480857421875 3.1375317382812495 0.49722167968750003 Q 3.1394199218749996 0.5135859375 3.1482314453124998 0.526173828125 Q 3.1457138671875 0.5337265625000001 3.1406787109375 0.5375029296875 Q 3.1356435546875 0.541279296875 3.1331259765625 0.5475732421875 Q 3.1431962890625 0.55890234375 3.1482314453124998 0.5727490234375 Q 3.1532666015624997 0.586595703125 3.1469726562499996 0.611771484375 Q 3.1583017578124997 0.6142890624999999 3.1627075195312497 0.6218417968750001 Q 3.16711328125 0.62939453125 3.16900146484375 0.63946484375 Q 3.1708896484375 0.64953515625 3.1721484374999998 0.65897607421875 Q 3.1734072265624995 0.6684169921875001 3.1797011718749997 0.6747109375 Q 3.1885126953125 0.6747109375 3.1897714843749996 0.6709345703125 Q 3.1910302734375 0.6671582031250001 3.1973242187499995 0.6671582031250001 Q 3.209912109375 0.6507939453125 3.2231293945312496 0.62939453125 Q 3.2363466796875 0.6079951171875 3.2508227539062498 0.58596630859375 Q 3.2652988281249997 0.5639375 3.2797749023437497 0.543796875 Q 3.2942509765624997 0.5236562499999999 3.3093564453125 0.5098095703125001 Q 3.3131328124999997 0.506033203125 3.3194267578125 0.50288623046875 Q 3.3257207031249996 0.4997392578125 3.32823828125 0.4947041015625 Q 3.3370498046874997 0.4821162109375 3.3395673828124997 0.46008740234375 Q 3.3420849609374996 0.43805859375 3.34837890625 0.42421191406250003 Q 3.3546728515624995 0.40784765624999997 3.3660019531249996 0.3940009765625 Q 3.3773310546874997 0.380154296875 3.3874013671874996 0.36379003906250007 Q 3.3949541015625 0.349943359375 3.4012480468749997 0.33924365234375 Q 3.4075419921875 0.3285439453125 3.4157241210937497 0.32099121093750005 Q 3.42390625 0.3134384765625 3.4352353515624996 0.30903271484375006 Q 3.4465644531249997 0.304626953125 3.4641874999999995 0.3033681640625 Q 3.4729990234374997 0.3033681640625 3.4805517578124996 0.30651513671874997 Q 3.4881044921874995 0.30966210937500005 3.4969160156249997 0.30966210937500005 Q 3.5208330078124996 0.30966210937500005 3.5472675781249996 0.30525634765625 Q 3.5737021484374996 0.3008505859375 3.60076611328125 0.2958154296875001 Q 3.6278300781249997 0.2907802734375 3.6536352539062498 0.29015087890625 Q 3.6794404296875 0.289521484375 3.7046162109374996 0.29707421875000006 Q 3.7071337890624996 0.314697265625 3.6926577148437496 0.32225000000000004 Q 3.6781816406249996 0.3298027343750001 3.6668525390625 0.3360966796875 Q 3.653005859375 0.34490820312500003 3.6372709960937497 0.35560791015625004 Q 3.6215361328124995 0.36630761718750005 3.6114658203124996 0.37763671875000004 Q 3.605171875 0.38518945312499997 3.60013671875 0.3940009765625 Q 3.5951015624999996 0.4028125 3.5888076171875 0.41036523437500005 Q 3.56992578125 0.43176464843750006 3.5491557617187497 0.45756982421875003 Q 3.5283857421874996 0.483375 3.5145390625 0.516103515625 Q 3.4969160156249997 0.541279296875 3.47362841796875 0.5639375 Q 3.4503408203125 0.586595703125 3.42894140625 0.6155478515625 Q 3.4176123046874998 0.6306533203125 3.4081713867187498 0.64890576171875 Q 3.3987304687499997 0.6671582031250001 3.3874013671874996 0.68478125 Q 3.3697783203125 0.7124746093750001 3.35530224609375 0.7370209960937499 Q 3.340826171875 0.7615673828125 3.3106152343749997 0.7716376953125 Q 3.3093564453125 0.7930371093749999 3.295509765625 0.808142578125 Q 3.2816630859375 0.823248046875 3.2728515624999996 0.8383535156249999 Q 3.2539697265624996 0.8723408203125 3.2344584960937497 0.903810546875 Q 3.2149472656249998 0.9352802734375 3.1897714843749996 0.9629736328125 Q 3.1721484374999998 0.969267578125 3.1601899414062498 0.97870849609375 Q 3.1482314453124998 0.9881494140625 3.1394199218749996 0.99884912109375 Q 3.1306083984375 1.009548828125 3.1224262695312497 1.02213671875 Q 3.114244140625 1.034724609375 3.1029150390624998 1.0485712890625 Q 3.0953623046875 1.0561240234375 3.0871801757812496 1.05927099609375 Q 3.078998046875 1.06241796875 3.0708159179687495 1.06430615234375 Q 3.0626337890624997 1.0661943359375 3.05445166015625 1.06934130859375 Q 3.0462695312499997 1.07248828125 3.0399755859375 1.080041015625 Q 3.0299052734374996 1.0938876953125 3.0198349609374997 1.10836376953125 Q 3.0097646484375 1.12283984375 2.9971767578125 1.1341689453125 Q 2.983330078125 1.148015625 2.9669658203125 1.15619775390625 Q 2.9506015624999997 1.1643798828125 2.94053125 1.1807441406249999 Q 2.9153554687499996 1.1895556640625 2.8914384765624996 1.19773779296875 Q 2.8675214843749997 1.205919921875 2.83479296875 1.2147314453125 Q 2.8209462890625 1.2185078125 2.8083583984374996 1.22039599609375 Q 2.7957705078124997 1.2222841796875 2.7794062499999996 1.2260605468749999 Q 2.761783203125 1.2298369140625 2.7454189453124997 1.2373896484375 Q 2.7290546874999997 1.2449423828125 2.711431640625 1.246201171875 Q 2.671150390625 1.24871875 2.6340161132812496 1.241166015625 Q 2.5968818359375 1.23361328125 2.5679296875 1.2222841796875 Q 2.5666708984374997 1.2122138671875 2.560376953125 1.2071787109374998 Q 2.5540830078125 1.2021435546875 2.5578593749999996 1.188296875 Q 2.5641533203124998 1.1794853515625 2.5786293945312497 1.17885595703125 Q 2.5931054687499997 1.1782265625 2.6044345703125 1.1820029296875 Q 2.620798828125 1.1794853515625 2.6308691406249998 1.175708984375 Q 2.6409394531249997 1.1719326171875 2.6497509765625 1.16752685546875 Q 2.6585625 1.16312109375 2.6673740234374996 1.1593447265624999 Q 2.6761855468749998 1.155568359375 2.6900322265625 1.15305078125 Q 2.71394921875 1.148015625 2.73471923828125 1.140462890625 Q 2.7554892578124996 1.13291015625 2.7831826171875 1.1366865234375 Q 2.7869589843749996 1.1341689453125 2.7888471679687497 1.125357421875 Q 2.7907353515624997 1.1165458984375 2.79451171875 1.1140283203124999 Q 2.8121347656249998 1.0926289062499999 2.83479296875 1.0812998046875 Q 2.8436044921874997 1.0661943359375 2.8549335937499998 1.06052978515625 Q 2.8662626953125 1.054865234375 2.87822119140625 1.05171826171875 Q 2.8901796875 1.0485712890625 2.9033969726562496 1.044794921875 Q 2.9166142578125 1.0410185546875 2.9292021484374997 1.029689453125 Q 2.9531191406249997 1.0082900390625 2.9745185546874997 0.99129638671875 Q 2.9959179687499997 0.974302734375 3.013541015625 0.9453505859375 Q 3.02109375 0.9352802734375 3.02801708984375 0.9226923828125 Q 3.0349404296874996 0.9101044921875 3.0437519531249997 0.8962578125 Q 3.0487871093749996 0.888705078125 3.05445166015625 0.8836699218749999 Q 3.0601162109374997 0.878634765625 3.06641015625 0.868564453125 Q 3.068927734375 0.8647880859375 3.0657807617187496 0.86038232421875 Q 3.0626337890624997 0.8559765625 3.0588574218749995 0.8522001953125 Q 3.0550810546875 0.848423828125 3.05193408203125 0.84401806640625 Q 3.0487871093749996 0.8396123046875 3.0500458984375 0.8345771484375 Q 3.0525634765625 0.828283203125 3.0500458984375 0.81506591796875 Q 3.0475283203125 0.8018486328125 3.0450107421875 0.7930371093749999 Q 3.0424931640625 0.7741552734375 3.0368286132812496 0.75023828125 Q 3.0311640625 0.7263212890625 3.02612890625 0.7124746093750001 Q 3.0198349609374997 0.702404296875 3.0154291992187496 0.69548095703125 Q 3.0110234374999996 0.6885576171875001 3.0097646484375 0.6759697265625 Q 3.0085058593749996 0.6583466796874999 3.0103940429687497 0.6445000000000001 Q 3.0122822265624998 0.6306533203125 3.0097646484375 0.616806640625 Q 3.0034707031249996 0.586595703125 2.9971767578125 0.5651962890625 Q 2.9934003906249997 0.551349609375 2.9864770507812497 0.5419086914062501 Q 2.9795537109374997 0.5324677734375001 2.9745185546874997 0.51862109375 Q 2.9745185546874997 0.503515625 2.9675952148437497 0.48526318359375004 Q 2.9606718749999996 0.4670107421875 2.95248974609375 0.44812890625 Q 2.9443076171874996 0.4292470703125 2.93738427734375 0.41099462890625005 Q 2.9304609375 0.3927421875 2.9292021484374997 0.37763671875000004 Q 2.9216494140625 0.36630761718750005 2.9090615234375 0.35749609375 Q 2.8964736328124996 0.3486845703125 2.88514453125 0.34176123046875007 Q 2.8738154296875 0.334837890625 2.8656333007812496 0.3291733398437501 Q 2.8574511718749998 0.3235087890625 2.8574511718749998 0.31721484375 Q 2.8574511718749998 0.30966210937500005 2.8605981445312496 0.30651513671874997 Q 2.8637451171875 0.3033681640625 2.8675214843749997 0.30147998046875 Q 2.8712978515625 0.29959179687500004 2.87570361328125 0.29707421875000006 Q 2.880109375 0.294556640625 2.8838857421874997 0.28700390625000005 Q 2.892697265625 0.2832275390625 2.9040263671875 0.2832275390625 Q 2.9153554687499996 0.2832275390625 2.927943359375 0.28511572265625007 Q 2.94053125 0.28700390625000005 2.95248974609375 0.28889208984375003 Q 2.9644482421875 0.2907802734375 2.97577734375 0.289521484375 Q 2.9971767578125 0.28700390625000005 3.01920556640625 0.289521484375 Q 3.0412343749999997 0.2920390625 3.0626337890624997 0.2932978515625 Q 3.063892578125 0.29959179687500004 3.0714453125 0.30022119140625003 Q 3.078998046875 0.3008505859375 3.0865507812499997 0.30022119140625003 Q 3.0941035156249996 0.29959179687500004 3.1010268554687497 0.3008505859375 Q 3.1079501953124997 0.302109375 3.109208984375 0.3071445312500001 M 3.8279775390624997 0.382671875 Q 3.8518945312499997 0.36630761718750005 3.869517578125 0.34490820312500003 Q 3.887140625 0.3235087890625 3.9035048828125 0.302109375 Q 3.9135751953124998 0.3033681640625 3.9211279296874997 0.29833300781250005 Q 3.9286806640625 0.2932978515625 3.9374921874999997 0.2907802734375 Q 3.955115234375 0.28574511718750006 3.9733676757812497 0.29140966796875 Q 3.9916201171875 0.29707421875000006 4.0092431640625 0.2958154296875001 Q 4.030642578125 0.2932978515625 4.05015380859375 0.2844863281250001 Q 4.0696650390624995 0.27567480468750005 4.096099609375 0.27567480468750005 Q 4.1049111328125 0.27567480468750005 4.1124638671875 0.28133935546875 Q 4.1200166015625 0.28700390625000005 4.127569335937499 0.28826269531250004 Q 4.1376396484375 0.2907802734375 4.14582177734375 0.28574511718750006 Q 4.15400390625 0.2807099609375 4.16407421875 0.2807099609375 Q 4.181697265625 0.2807099609375 4.19113818359375 0.2920390625 Q 4.2005791015625 0.3033681640625 4.2131669921874995 0.314697265625 Q 4.2194609375 0.34364941406250005 4.21442578125 0.3713427734375 Q 4.209390625 0.39903613281250006 4.211908203125 0.42798828125 Q 4.21442578125 0.4468701171875 4.21757275390625 0.4644931640625 Q 4.2207197265625 0.4821162109375 4.2207197265625 0.5009980468749999 Q 4.221978515625 0.5173623046875 4.21883154296875 0.53561474609375 Q 4.2156845703125 0.5538671875000001 4.216943359375 0.571490234375 Q 4.2182021484375 0.5777841796875001 4.2207197265625 0.584078125 Q 4.223237304687499 0.5903720703124999 4.221978515625 0.596666015625 Q 4.2194609375 0.6105126953125 4.2106494140625 0.6180654296875 Q 4.201837890625 0.6256181640625 4.2005791015625 0.6382060546875 Q 4.1980615234375 0.657087890625 4.20876123046875 0.6734521484375 Q 4.2194609375 0.6898164062500001 4.221978515625 0.707439453125 Q 4.223237304687499 0.7149921875 4.2207197265625 0.7238037109375 Q 4.2182021484375 0.732615234375 4.2182021484375 0.74016796875 Q 4.2156845703125 0.767861328125 4.21883154296875 0.8018486328125 Q 4.221978515625 0.8358359375 4.223237304687499 0.8647880859375 Q 4.223237304687499 0.8748583984375 4.2251254882812495 0.8849287109375 Q 4.2270136718749995 0.8949990234375 4.22449609375 0.90129296875 Q 4.223237304687499 0.9075869140625 4.21883154296875 0.91136328125 Q 4.21442578125 0.9151396484375 4.211908203125 0.9201748046875 Q 4.2106494140625 0.92646875 4.21253759765625 0.9377978515625 Q 4.21442578125 0.949126953125 4.21442578125 0.959197265625 Q 4.21442578125 0.9680087890625 4.2131669921874995 0.97619091796875 Q 4.211908203125 0.9843730468749999 4.211908203125 0.9906669921875 Q 4.2131669921874995 0.994443359375 4.2150551757812496 0.99884912109375 Q 4.216943359375 1.0032548828125 4.2156845703125 1.00703125 Q 4.2131669921874995 1.0183603515625 4.19869091796875 1.03157763671875 Q 4.1842148437499995 1.044794921875 4.169109375 1.0435361328125 Q 4.161556640625 1.04227734375 4.14708056640625 1.03157763671875 Q 4.1326044921875 1.0208779296875 4.126310546875 1.014583984375 Q 4.1149814453125 1.0007373046874999 4.1124638671875 0.979337890625 Q 4.1099462890625 0.9579384765625 4.101134765625 0.9403154296875 Q 4.0973583984375 0.934021484375 4.09043505859375 0.92835693359375 Q 4.08351171875 0.9226923828125 4.0784765625 0.9151396484375 Q 4.070923828125 0.90129296875 4.06840625 0.88681689453125 Q 4.065888671874999 0.8723408203125 4.06525927734375 0.85786474609375 Q 4.0646298828125 0.843388671875 4.06337109375 0.82891259765625 Q 4.0621123046875 0.8144365234375 4.0570771484375 0.7993310546875 Q 4.0545595703125 0.7942958984375 4.0495244140625 0.79051953125 Q 4.0444892578125 0.7867431640625 4.040712890625 0.7804492187500001 Q 4.03316015625 0.767861328125 4.030642578125 0.7590498046875 Q 4.028125 0.75023828125 4.0142783203125 0.745203125 Q 3.970220703125 0.745203125 3.9255336914062497 0.742685546875 Q 3.8808466796875 0.74016796875 3.8380478515625 0.745203125 Q 3.8279775390624997 0.7464619140625 3.8204248046875 0.74960888671875 Q 3.8128720703125 0.752755859375 3.8028017578125 0.7540146484375 Q 3.7977666015625 0.7540146484375 3.7927314453125 0.752755859375 Q 3.7876962890624997 0.7514970703125 3.783919921875 0.7514970703125 Q 3.7662968749999997 0.7540146484375 3.7499326171875 0.76723193359375 Q 3.733568359375 0.7804492187500001 3.7247568359375 0.7930371093749999 Q 3.7197216796875 0.80058984375 3.71909228515625 0.81128955078125 Q 3.7184628906249997 0.8219892578125 3.7146865234375 0.8320595703125 Q 3.7109101562499998 0.8421298828125 3.7020986328125 0.85031201171875 Q 3.693287109375 0.858494140625 3.6958046875 0.8710820312499999 Q 3.6819580078125 0.88115234375 3.67251708984375 0.8962578125 Q 3.663076171875 0.91136328125 3.6542646484374997 0.92709814453125 Q 3.645453125 0.9428330078125 3.6347534179687497 0.9566796875 Q 3.6240537109375 0.9705263671875 3.6089482421874997 0.9768203125 Q 3.602654296875 0.979337890625 3.5969897460937497 0.9831142578125 Q 3.5913251953125 0.986890625 3.5850312499999997 0.986890625 Q 3.5787373046875 0.9856318359375 3.57810791015625 0.9831142578125 Q 3.5774785156249997 0.9805966796875 3.56992578125 0.9755615234375 Q 3.562373046875 0.9705263671875 3.5516733398437497 0.964232421875 Q 3.5409736328125 0.9579384765625 3.5309033203125 0.9503857421874999 Q 3.5208330078125 0.9428330078125 3.51265087890625 0.93465087890625 Q 3.50446875 0.92646875 3.5006923828125 0.918916015625 Q 3.4906220703125 0.8975166015625 3.4969160156249997 0.88807568359375 Q 3.5032099609375 0.878634765625 3.5132802734374997 0.8647880859375 Q 3.527126953125 0.8446474609375 3.54475 0.8194716796875 Q 3.562373046875 0.7942958984375 3.5762197265625 0.7716376953125 Q 3.5837724609375 0.7590498046875 3.5894370117187497 0.7477207031249999 Q 3.5951015625 0.7363916015625 3.6039130859374997 0.7263212890625 Q 3.6139833984375 0.7124746093750001 3.62971826171875 0.7036630859374999 Q 3.645453125 0.6948515625 3.6517470703124997 0.6810048828124999 Q 3.6542646484374997 0.6747109375 3.6542646484374997 0.66778759765625 Q 3.6542646484374997 0.6608642578125 3.6567822265625 0.6533115234375 Q 3.6668525390625 0.6281357421875 3.688251953125 0.6079951171875 Q 3.7096513671875 0.5878544921875 3.7209804687499997 0.5626787109375 Q 3.723498046875 0.556384765625 3.72412744140625 0.55072021484375 Q 3.7247568359375 0.5450556640625 3.7272744140625 0.53876171875 Q 3.7474150390625 0.4921865234375 3.77699658203125 0.45568164062500005 Q 3.8065781249999997 0.41917675781249997 3.8279775390624997 0.382671875 M 4.0042080078125 0.37889550781250003 Q 3.9891025390625 0.39022460937500003 3.9784028320312497 0.40470068359375 Q 3.967703125 0.41917675781249997 3.9500800781249996 0.4267294921875 Q 3.9450449218749997 0.43805859375 3.9381215820312496 0.44812890625 Q 3.9311982421875 0.45819921875 3.919869140625 0.4644931640625 Q 3.9160927734374997 0.48463378906250004 3.904763671875 0.49910986328125 Q 3.8934345703125 0.5135859375 3.8833642578124996 0.5274326171875 Q 3.8783291015624997 0.5324677734375001 3.874552734375 0.53813232421875 Q 3.8707763671874997 0.543796875 3.8657412109375 0.5500908203125 Q 3.8594472656249996 0.556384765625 3.8531533203125 0.55953173828125 Q 3.8468593749999997 0.5626787109375 3.84182421875 0.5677138671874999 Q 3.834271484375 0.5777841796875001 3.8254599609374997 0.5954072265625 Q 3.8166484375 0.6130302734374999 3.8090957031249997 0.624359375 Q 3.8028017578125 0.6306533203125 3.7965078125 0.6369472656249999 Q 3.7902138671875 0.6432412109375001 3.7927314453125 0.6533115234375 Q 3.7965078125 0.6633818359375 3.8078369140625 0.66652880859375 Q 3.819166015625 0.66967578125 3.83364208984375 0.6703051757812499 Q 3.8481181640625 0.6709345703125 3.86196484375 0.66967578125 Q 3.8758115234374997 0.6684169921875001 3.884623046875 0.6684169921875001 Q 3.9022460937499996 0.6684169921875001 3.92049853515625 0.6690463867187499 Q 3.9387509765625 0.66967578125 3.95574462890625 0.6684169921875001 Q 3.97273828125 0.6671582031250001 3.9859555664062496 0.662123046875 Q 3.9991728515625 0.657087890625 4.0067255859375 0.647017578125 Q 4.0193134765625 0.606736328125 4.013019531249999 0.5658256835937501 Q 4.0067255859375 0.5249150390625 4.0016904296875 0.48463378906250004 Q 3.9991728515625 0.4733046875 3.9979140625 0.4594580078125 Q 3.9966552734375 0.44561132812500004 3.9979140625 0.43428222656250004 Q 3.9991728515625 0.42169433593750005 4.00609619140625 0.40973583984375006 Q 4.013019531249999 0.39777734375000007 4.0079843749999995 0.3814130859375 L 4.0042080078125 0.37889550781250003" fill="#ffffff" fill-rule="nonzero"></path></g><g></g><g clip-path="url(#SvgjsClipPath1003)"><g clip-path="url(#SvgjsClipPath10007709c253-18c2-49f0-a8ab-9ad9ba6efbfe)"><path d=" M 4.489702642699329 0.7497441063715891 L 4.757099841599725 1.2126138780039475 L 4.9374914443286295 0.8999737690943721 L 4.778174530450157 0.6242627021153649 L 5.010189453574146 0.22326357664940372 L 5.474219299822125 0.22326357664940372 L 5.704494111022683 0.6242627021153649 L 5.545370542913482 0.8999737690943721 L 5.725762145642384 1.2124205322346775 L 5.99315934454278 0.7497441063715891 C 6.0393327990061 0.6723225633334189 6.0393327990061 0.575816149358771 5.99315934454278 0.49839460632060084 L 5.725762145642381 0.03591152622678251 C 5.681804029816288 -0.04245004054995134 5.598474835396961 -0.09045893528664127 5.50863484675218 -0.08918318649090162 L 4.974033794720655 -0.08918318649090162 C 4.884262712572597 -0.09038762804703383 4.801024737798244 -0.04238854633668901 4.757099841599725 0.03591152622678259 L 4.489702642699329 0.4987812978591408 C 4.443682774038128 0.5761064573126394 4.443682774038128 0.6724189469180906 4.489702642699329 0.7497441063715892 Z" fill="#dce2e3" transform="matrix(1,0,0,1,0,0)" fill-rule="evenodd"></path></g><g clip-path="url(#SvgjsClipPath10007709c253-18c2-49f0-a8ab-9ad9ba6efbfe)"><path d=" M 5.241430993621052 0.750904180987209 L 5.580366127151347 1.3380952822601713 L 5.241237647851783 1.242002434932986 L 4.902302514321489 1.3380952822601713 L 5.241430993621052 0.750904180987209 Z" fill="#bab9b4" transform="matrix(1,0,0,1,0,0)" fill-rule="evenodd"></path></g></g></g><defs><clipPath id="SvgjsClipPath1003"><path d=" M 4.45509375 -0.0893765322601715 h 1.572481141472836 v 1.4274718145203429 h -1.572481141472836 Z"></path></clipPath><clipPath id="SvgjsClipPath10007709c253-18c2-49f0-a8ab-9ad9ba6efbfe"><path d=" M 4.45509375 -0.08937653226017164 L 6.0275748914728355 -0.08937653226017164 L 6.0275748914728355 1.3380952822601713 L 4.45509375 1.3380952822601713 Z"></path></clipPath></defs></svg>